nColumns=19
nRows=61
DataType=double
version=3
OpenSimVersion=4.1
endheader
time	ground_force_calcn_r_vx	ground_force_calcn_r_vy	ground_force_calcn_r_vz	ground_force_calcn_r_px	ground_force_calcn_r_py	ground_force_calcn_r_pz	ground_force_calcn_r_mx	ground_force_calcn_r_my	ground_force_calcn_r_mz	ground_force_calcn_l_vx	ground_force_calcn_l_vy	ground_force_calcn_l_vz	ground_force_calcn_l_px	ground_force_calcn_l_py	ground_force_calcn_l_pz	ground_force_calcn_l_mx	ground_force_calcn_l_my	ground_force_calcn_l_mz
0.08	0	0	0	0	0	0	0	0	0	-9.70827	1310.75	140.371	1.02687	0	-0.322398	0.119377	-16.1176	-1.72607
0.09	0	0	0	0	0	0	0	0	0	-92.1042	1484.51	67.7916	0.983989	0	-0.331544	-0.0786115	1.26704	0.0578605
0.1	0	0	0	0	0	0	0	0	0	-147.265	1627.35	-5.23383	0.945618	0	-0.335958	-1.30617	14.4338	-0.0464217
0.11	0	0	0	0	0	0	0	0	0	-142.946	1728.72	-47.7344	0.909555	0	-0.336007	-1.75574	21.2331	-0.586303
0.12	0	0	0	0	0	0	0	0	0	-100.587	1806.14	-57.6897	0.873193	0	-0.335047	-1.20625	21.6593	-0.691816
0.13	0	0	0	0	0	0	0	0	0	-46.4822	1830.09	-51.7131	0.837613	0	-0.33483	-0.442815	17.4344	-0.492647
0.14	0	0	0	0	0	0	0	0	0	7.6325	1781.07	-45.7826	0.803241	0	-0.335118	0.0483846	11.2907	-0.290229
0.15	0	0	0	0	0	0	0	0	0	60.2034	1667.07	-45.8855	0.770284	0	-0.334631	0.208873	5.78384	-0.159198
0.16	0	0	0	0	0	0	0	0	0	111.344	1494.47	-51.2915	0.738091	0	-0.333066	0.180391	2.42122	-0.0830985
0.17	0	0	0	0	0	0	0	0	0	156.586	1261.59	-58.2865	0.704614	0	-0.331054	0.176667	1.42338	-0.0657613
0.18	0	0	0	0	0	0	0	0	0	183.376	973.742	-61.6694	0.666228	0	-0.329019	0.37861	2.01045	-0.127327
0.19	0	0	0	0	0	0	0	0	0	180.756	662.033	-58.4999	0.619725	0	-0.327174	0.814256	2.98227	-0.263525
0.2	0	0	0	0	0	0	0	0	0	143.008	383.983	-49.2907	0.570544	0	-0.32543	1.2534	3.36543	-0.43201
0.21	0	0	0	0	0	0	0	0	0	86.1138	186.242	-35.6938	0.537184	0	-0.322587	1.32892	2.8741	-0.550829
0.22	0	0	0	0	0	0	0	0	0	38.152	75.7951	-20.9273	0.573841	0	-0.313439	0.918447	1.82464	-0.503791
0.23	0	0	0	0	0	0	0	0	0	11.8434	27.2951	-9.45088	0.795434	0	-0.288342	0.273575	0.630499	-0.218309
0.24	0	0	0	0	0	0	0	0	0	0	0	0	0	0	0	0	0	0
0.25	0	0	0	0	0	0	0	0	0	0	0	0	0	0	0	0	0	0
0.26	0	0	0	0	0	0	0	0	0	0	0	0	0	0	0	0	0	0
0.27	0	0	0	0	0	0	0	0	0	0	0	0	0	0	0	0	0	0
0.28	0	0	0	0	0	0	0	0	0	0	0	0	0	0	0	0	0	0
0.29	0	0	0	0	0	0	0	0	0	0	0	0	0	0	0	0	0	0
0.3	0	0	0	0	0	0	0	0	0	0	0	0	0	0	0	0	0	0
0.31	0	0	0	0	0	0	0	0	0	0	0	0	0	0	0	0	0	0
0.32	0	0	0	0	0	0	0	0	0	0	0	0	0	0	0	0	0	0
0.33	-8.80867	18.8078	-6.46433	1.13405	0	-0.335762	-0.906636	1.9358	-0.665344	0	0	0	0	0	0	0	0	0
0.34	-31.0443	74.3232	-15.0374	1.14749	0	-0.3472	-1.57075	3.76054	-0.760847	0	0	0	0	0	0	0	0	0
0.35	-83.9334	224.325	-25.3827	1.13152	0	-0.347361	-1.90944	5.10328	-0.577445	0	0	0	0	0	0	0	0	0
0.36	-142.016	488.023	-29.6616	1.11214	0	-0.347205	-1.55201	5.33335	-0.324155	0	0	0	0	0	0	0	0	0
0.37	-152.81	812.51	-19.6377	1.08326	0	-0.349713	-0.723143	3.84504	-0.0929318	0	0	0	0	0	0	0	0	0
0.38	-149.73	1124.97	5.59912	1.04819	0	-0.354492	-0.0970503	0.729171	0.00362917	0	0	0	0	0	0	0	0	0
0.39	-173.741	1352.68	37.5189	1.01313	0	-0.359117	0.371896	-2.89544	-0.0803103	0	0	0	0	0	0	0	0	0
0.4	-186.759	1480.52	62.1337	0.976726	0	-0.362233	0.725939	-5.75484	-0.241516	0	0	0	0	0	0	0	0	0
0.41	-170.977	1555.4	70.6753	0.937015	0	-0.363714	0.767891	-6.98563	-0.317417	0	0	0	0	0	0	0	0	0
0.42	-131.216	1606.09	65.805	0.894796	0	-0.363458	0.521107	-6.37836	-0.261336	0	0	0	0	0	0	0	0	0
0.43	-66.9701	1623.71	55.2301	0.851771	0	-0.362306	0.181703	-4.40544	-0.14985	0	0	0	0	0	0	0	0	0
0.44	14.1027	1593.55	46.2164	0.80769	0	-0.361253	-0.0172698	-1.95142	-0.0565954	0	0	0	0	0	0	0	0	0
0.45	99.5542	1509.08	43.0658	0.762166	0	-0.360384	0.00716697	0.10864	0.00310033	0	0	0	0	0	0	0	0	0
0.46	179.656	1368.93	44.7708	0.715576	0	-0.359956	0.16793	1.27958	0.0418488	0	0	0	0	0	0	0	0	0
0.47	237.619	1176.65	48.0311	0.668836	0	-0.360114	0.316969	1.56958	0.0640706	0	0	0	0	0	0	0	0	0
0.48	260.982	943.316	50.5338	0.624969	0	-0.360072	0.373072	1.34847	0.0722379	0	0	0	0	0	0	0	0	0
0.49	245.434	688.473	50.0306	0.586353	0	-0.35942	0.378731	1.06239	0.0772025	0	0	0	0	0	0	0	0	0
0.5	196.36	445.136	44.7684	0.552337	0	-0.358082	0.434257	0.984434	0.0990067	0	0	0	0	0	0	0	0	0
0.51	131.549	249.36	35.1322	0.523009	0	-0.354416	0.590924	1.12014	0.157816	0	0	0	0	0	0	0	0	0
0.52	71.1076	117.739	23.2066	0.498295	0	-0.346287	0.784377	1.29876	0.255988	0	0	0	0	0	0	0	0	0
0.53	28.7371	45.2945	12.0475	0.48435	0	-0.332297	0.867082	1.36667	0.363507	0	0	0	0	0	0	0	0	0
0.54	7.86474	14.5401	4.68014	0.537226	0	-0.296871	0.709608	1.3119	0.422273	0	0	0	0	0	0	0	0	0
0.55	0	0	0	0	0	0	0	0	0	0	0	0	0	0	0	0	0	0
0.56	0	0	0	0	0	0	0	0	0	0	0	0	0	0	0	0	0	0
0.57	0	0	0	0	0	0	0	0	0	0	0	0	0	0	0	0	0	0
0.58	0	0	0	0	0	0	0	0	0	0	0	0	0	0	0	0	0	0
0.59	0	0	0	0	0	0	0	0	0	0	0	0	0	0	0	0	0	0
0.6	0	0	0	0	0	0	0	0	0	0	0	0	0	0	0	0	0	0
0.61	0	0	0	0	0	0	0	0	0	0	0	0	0	0	0	0	0	0
0.62	0	0	0	0	0	0	0	0	0	-16.2214	32.2739	-0.531935	1.15899	0	-0.443049	-0.599335	1.19243	-0.0196535
0.63	0	0	0	0	0	0	0	0	0	-57.0977	128.233	5.97148	1.11815	0	-0.435317	-0.311699	0.70003	0.0325986
0.64	0	0	0	0	0	0	0	0	0	-130.132	365.914	22.3426	1.10556	0	-0.425773	0.0151574	-0.0426206	-0.0026024
0.65	0	0	0	0	0	0	0	0	0	-177.546	740.716	42.6741	1.09039	0	-0.414474	0.13813	-0.576277	-0.0332004
0.66	0	0	0	0	0	0	0	0	0	-172.754	1119.62	50.181	1.06619	0	-0.407934	0.0666862	-0.432192	-0.0193707
0.67	0	0	0	0	0	0	0	0	0	-186.128	1372.42	40.304	1.0374	0	-0.40703	-0.0455032	0.335519	0.00985325
0.68	0	0	0	0	0	0	0	0	0	-209.292	1506.28	30.333	1.00318	0	-0.406691	-0.153986	1.10824	0.0223174
